<svg xmlns="http://www.w3.org/2000/svg" viewBox="0 0 138.64 129.83"><defs><style>.cls-1{fill:#fff;}.cls-2{fill:#be6bff;}.cls-3{opacity:0.13;}</style></defs><g id="Camada_2" data-name="Camada 2"><g id="Layer_1" data-name="Layer 1"><rect class="cls-1" x="0.87" y="34.18" width="136.9" height="94.78" transform="translate(138.64 163.13) rotate(180)"/><path d="M137.77,129.83H.87A.87.87,0,0,1,0,129V34.18a.87.87,0,0,1,.87-.87h136.9a.87.87,0,0,1,.87.87V129A.87.87,0,0,1,137.77,129.83Zm-136-1.74H136.9v-93H1.74Z"/><rect class="cls-2" x="0.87" y="30.14" width="136.9" height="12.51" transform="translate(138.64 72.78) rotate(180)"/><path d="M137.77,43.51H.87A.87.87,0,0,1,0,42.64V30.14a.87.87,0,0,1,.87-.87h136.9a.87.87,0,0,1,.87.87v12.5A.87.87,0,0,1,137.77,43.51Zm-136-1.74H136.9V31H1.74Z"/><path d="M119.3,66.84a.88.88,0,0,1-.87-.87.87.87,0,0,1,.87-.87l8.38,0h0a.88.88,0,0,1,.87.86.87.87,0,0,1-.87.88l-8.38,0Z"/><path d="M23.22,67c-3.54,0-7.15,0-10.79-.07a.86.86,0,0,1-.86-.88.85.85,0,0,1,.88-.86c5.94.07,11.8.09,17.41,0h0a.87.87,0,0,1,.87.87.86.86,0,0,1-.86.87Q26.6,67,23.22,67Z"/><path d="M109.44,87a.87.87,0,1,1,0-1.74l18.24,0h0a.87.87,0,0,1,0,1.74l-18.25,0Z"/><path d="M74.88,107.2a.87.87,0,1,1,0-1.74l51.86,0h0a.87.87,0,1,1,0,1.74Z"/><path d="M30.19,87.05c-5.83,0-11.76,0-17.76,0a.87.87,0,0,1,0-1.74h0c10.41.06,20.64.06,30.41,0h0a.86.86,0,0,1,.87.86.88.88,0,0,1-.86.88Z"/><g class="cls-3"><rect x="0.87" y="43.62" width="136.9" height="4.06"/></g><circle class="cls-1" cx="74.87" cy="52.51" r="37.6"/><path d="M74.87,91a38.48,38.48,0,1,1,38.47-38.48A38.51,38.51,0,0,1,74.87,91Zm0-75.21A36.74,36.74,0,1,0,111.6,52.51,36.77,36.77,0,0,0,74.87,15.78Z"/><circle class="cls-1" cx="74.87" cy="51.93" r="22.88" transform="translate(-14.79 68.15) rotate(-45)"/><path d="M74.87,75.68A23.75,23.75,0,1,1,98.62,51.93,23.77,23.77,0,0,1,74.87,75.68Zm0-45.76a22,22,0,1,0,22,22A22,22,0,0,0,74.87,29.92Z"/><circle class="cls-1" cx="74.87" cy="51.93" r="7.95" transform="translate(-14.79 68.15) rotate(-45)"/><path d="M74.87,60.75a8.82,8.82,0,1,1,8.82-8.82A8.82,8.82,0,0,1,74.87,60.75Zm0-15.9A7.08,7.08,0,1,0,82,51.93,7.09,7.09,0,0,0,74.87,44.85Z"/><path d="M74.87,52.8a.87.87,0,0,1-.62-1.48L120,5.25a.87.87,0,0,1,1.23,0,.88.88,0,0,1,0,1.23L75.49,52.55A.88.88,0,0,1,74.87,52.8Z"/><polygon class="cls-1" points="104.1 22.52 116.25 10.36 125.67 12.96 113.52 25.11 104.1 22.52"/><path d="M113.52,26a.85.85,0,0,1-.23,0l-9.43-2.59a.9.9,0,0,1-.61-.62.87.87,0,0,1,.23-.84L115.64,9.75a.85.85,0,0,1,.84-.23l9.43,2.6a.87.87,0,0,1,.61.61.9.9,0,0,1-.23.84L114.13,25.73A.86.86,0,0,1,113.52,26Zm-7.75-3.91,7.49,2.07L124,13.4l-7.49-2.07Z"/><polygon class="cls-1" points="113.59 0.87 101.43 13.03 104.03 22.45 116.18 10.29 113.59 0.87"/><path d="M104,23.32a.78.78,0,0,1-.22,0,.87.87,0,0,1-.62-.61l-2.6-9.42a.88.88,0,0,1,.23-.85L113,.25a.88.88,0,0,1,1.46.39L117,10.06a.89.89,0,0,1-.22.85L104.64,23.06A.85.85,0,0,1,104,23.32Zm-1.62-10,2.06,7.5L115.21,10l-2.06-7.5Z"/><path d="M54.71,52.22a.32.32,0,0,1-.21-.08.3.3,0,0,1,0-.41L74.59,31.88a.29.29,0,0,1,.41.41L54.91,52.14A.32.32,0,0,1,54.71,52.22Z"/><path d="M55.82,45.11a.3.3,0,0,1-.2-.08.28.28,0,0,1,0-.41l12.3-12.31a.29.29,0,0,1,.41.41L56,45A.32.32,0,0,1,55.82,45.11Z"/><path d="M55.82,57.73a.32.32,0,0,1-.2-.08.28.28,0,0,1,0-.41l24.3-24.62a.29.29,0,0,1,.41.41L56,57.64A.29.29,0,0,1,55.82,57.73Z"/><path d="M77.85,42.3a.32.32,0,0,1-.2-.08.3.3,0,0,1,0-.41L85,34.28a.3.3,0,0,1,.41,0,.29.29,0,0,1,0,.41l-7.33,7.52A.27.27,0,0,1,77.85,42.3Z"/><path d="M57.81,62.14a.27.27,0,0,1-.2-.09.29.29,0,0,1,0-.41l6.94-6.77a.3.3,0,0,1,.41,0,.29.29,0,0,1,0,.41L58,62.06A.32.32,0,0,1,57.81,62.14Z"/><path d="M69.27,71.39a.31.31,0,0,1-.2-.07.29.29,0,0,1,0-.41l8.58-9.26a.3.3,0,0,1,.41,0,.29.29,0,0,1,0,.41L69.48,71.3A.29.29,0,0,1,69.27,71.39Z"/><path d="M61,66.23a.32.32,0,0,1-.2-.08.29.29,0,0,1,0-.41l6-6.06a.3.3,0,0,1,.41,0,.29.29,0,0,1,0,.41l-6,6A.29.29,0,0,1,61,66.23Z"/><path d="M64.74,69.15a.27.27,0,0,1-.2-.09.28.28,0,0,1,0-.41l6.76-6.76a.29.29,0,0,1,.41.41L65,69.06A.29.29,0,0,1,64.74,69.15Z"/><path d="M84.56,48.09a.32.32,0,0,1-.2-.08.3.3,0,0,1,0-.41c2.22-2.36,4.53-4.69,6.86-6.93a.29.29,0,0,1,.41,0,.3.3,0,0,1,0,.41C89.29,43.32,87,45.65,84.77,48A.27.27,0,0,1,84.56,48.09Z"/><path d="M85.54,53.82a.3.3,0,0,1-.2-.08.29.29,0,0,1,0-.41l8-8.2a.29.29,0,0,1,.41,0,.3.3,0,0,1,0,.41l-8,8.2A.3.3,0,0,1,85.54,53.82Z"/><path d="M74.08,72.43a.28.28,0,0,1-.2-.08.29.29,0,0,1,0-.41C81,64.37,87.49,57.59,94.41,50.61a.29.29,0,1,1,.41.41c-6.91,7-13.44,13.75-20.53,21.31A.28.28,0,0,1,74.08,72.43Z"/><path d="M81.06,71.39a.32.32,0,0,1-.21-.08.3.3,0,0,1,0-.41c1-1,3.68-3.79,6.25-6.49s5.23-5.49,6.26-6.49a.29.29,0,0,1,.41,0,.3.3,0,0,1,0,.41c-1,1-3.68,3.79-6.25,6.48s-5.24,5.5-6.26,6.5A.27.27,0,0,1,81.06,71.39Z"/><g class="cls-3"><path d="M106.42,72.55c-.78.2-1.1.9-1.38,1.58a11.07,11.07,0,0,1-1.28,2.08c-1.56,1.73-5,6.87-9.07,9a42,42,0,0,1-8.77,4.3A19.43,19.43,0,0,1,79,90.9c-2.2.08-4.41.11-6.61,0a1.64,1.64,0,0,0-.78-1.36c-2.32-.65-4.18-.5-6-1s-3.47-.85-5.21-1.26a1.59,1.59,0,0,0-1.26.17h0c-.75-.48-1.52-1-2.3-1.52-3.61-2.62-5.62-3.66-8.53-6.81a16.63,16.63,0,0,1-1.71-2.61,29.34,29.34,0,0,1-2.35-2.25c-.67-.72-1.3-1.48-1.9-2.26a1.82,1.82,0,0,0-.31.31,21.91,21.91,0,0,0,.87,2.55,34,34,0,0,0,3.55,6.45,40.07,40.07,0,0,0,5.86,6.55l.26.16a49.29,49.29,0,0,0,6.24,3.64c.91.45,1.83.88,2.77,1.29a55.78,55.78,0,0,0,11.11,2.78c1.14.16,2.28.27,3.43.36a68.49,68.49,0,0,0,10.16-2.16,27.62,27.62,0,0,0,11-5.77A38.08,38.08,0,0,0,105,78c1-1.74,1.8-3.52,2.63-5.31A1.69,1.69,0,0,0,106.42,72.55Z"/></g><g class="cls-3"><path d="M115.47,11c-2.44,2.06-4.67,4.35-7,6.5-.64.57-1.31,1.11-2,1.67-.36.34-.85.61-1,1.11a1.75,1.75,0,0,0,2.85,1.91c2.36-2,4.53-4.17,6.75-6.31.81-.77,1.61-1.54,2.46-2.27.32-.3.74-.54.87-1A1.69,1.69,0,0,0,115.47,11Z"/></g><path d="M55.19,116.59H12.44a.87.87,0,0,1-.87-.87V100.86a.87.87,0,0,1,.87-.87H55.19a.87.87,0,0,1,.87.87v14.86A.87.87,0,0,1,55.19,116.59Zm-41.88-1.74h41V101.73h-41Z"/></g></g></svg>