<svg xmlns="http://www.w3.org/2000/svg" viewBox="0 0 109.06 131.78"><defs><style>.cls-1{fill:#be6bff;}.cls-2{fill:#fff;}.cls-3{opacity:0.13;}</style></defs><g id="Camada_2" data-name="Camada 2"><g id="Layer_1" data-name="Layer 1"><rect class="cls-1" x="0.87" y="0.87" width="74.76" height="130.04" rx="14.33"/><path class="cls-1" d="M61.43,131.78H15.07A15.09,15.09,0,0,1,0,116.71V15.07A15.09,15.09,0,0,1,15.07,0H61.43A15.09,15.09,0,0,1,76.5,15.07V116.71A15.09,15.09,0,0,1,61.43,131.78ZM15.07,1.74A13.35,13.35,0,0,0,1.74,15.07V116.71A13.35,13.35,0,0,0,15.07,130H61.43a13.35,13.35,0,0,0,13.33-13.33V15.07A13.35,13.35,0,0,0,61.43,1.74Z"/><rect class="cls-2" x="0.87" y="14.7" width="74.76" height="98.06"/><path d="M75.63,113.63H.87a.87.87,0,0,1-.87-.87V14.7a.87.87,0,0,1,.87-.87H75.63a.87.87,0,0,1,.87.87v98.06A.87.87,0,0,1,75.63,113.63ZM1.74,111.89h73V15.57h-73Z"/><path d="M45.74,120.68H32.28a.87.87,0,1,1,0-1.74H45.74a.87.87,0,0,1,0,1.74Z"/><path d="M46.37,33.69H13.31a.87.87,0,1,1,0-1.74H46.37a.87.87,0,1,1,0,1.74Z"/><path d="M29.84,54H13.31a.87.87,0,0,1,0-1.74H29.84a.87.87,0,0,1,0,1.74Z"/><path d="M29.84,74.38H13.31a.87.87,0,1,1,0-1.74H29.84a.87.87,0,0,1,0,1.74Z"/><path d="M29.84,94.73H13.31a.87.87,0,1,1,0-1.74H29.84a.87.87,0,0,1,0,1.74Z"/><g class="cls-3"><path d="M70.62,14.87c-2.55-.07-5.1-.18-7.65-.15q-10.29-.12-20.6,0c-5.4,0-10.8.26-16.2-.1-6.62-.21-13.24-.6-19.87-.34q-1.39,0-2.79,0a2.8,2.8,0,0,0-1.67.17,2.54,2.54,0,0,0,1,4.86c3.23.23,6.48,0,9.71.05,3.86,0,7.71.3,11.57.38,14.4.09,28.81.15,43.21-.11,1.91,0,3.82,0,5.73,0,1.59.17,3.2-.57,3.21-2.36C76.06,14.16,72.76,15,70.62,14.87Z"/></g><path class="cls-2" d="M75.42,30.3c-18.1,0-32.77,15.24-32.77,34A34.78,34.78,0,0,0,49.39,85l-4,16.47,13.75-7.61a31.71,31.71,0,0,0,16.29,4.51c18.1,0,32.77-15.24,32.77-34S93.52,30.3,75.42,30.3Z"/><path d="M45.38,102.35a.87.87,0,0,1-.85-1.07l3.92-16.09a35.45,35.45,0,0,1-6.67-20.85c0-19.25,15.09-34.91,33.64-34.91s33.64,15.66,33.64,34.91S94,99.25,75.42,99.25a32.73,32.73,0,0,1-16.3-4.38L45.8,102.24A.91.91,0,0,1,45.38,102.35Zm30-71.18c-17.59,0-31.9,14.88-31.9,33.17a33.69,33.69,0,0,0,6.57,20.15.88.88,0,0,1,.15.72L46.69,99.76l12-6.65a.85.85,0,0,1,.86,0,31,31,0,0,0,15.85,4.39c17.59,0,31.9-14.88,31.9-33.17S93,31.17,75.42,31.17Z"/><path class="cls-1" d="M76.25,80.7,63,62a7,7,0,0,1,1.5-9.64A6.65,6.65,0,0,1,74,53.93l2.29,3.24,2.3-3.24A6.65,6.65,0,0,1,88,52.4,7,7,0,0,1,89.47,62Z"/><path class="cls-1" d="M76.25,81.57a.89.89,0,0,1-.71-.37L62.33,62.54A7.88,7.88,0,0,1,64,51.7a7.39,7.39,0,0,1,5.65-1.39,7.53,7.53,0,0,1,5,3.12l1.58,2.24,1.59-2.24a7.53,7.53,0,0,1,5-3.12,7.45,7.45,0,0,1,5.66,1.39,7.9,7.9,0,0,1,1.69,10.84L77,81.2A.86.86,0,0,1,76.25,81.57ZM68.49,52a5.67,5.67,0,0,0-3.43,1.15,6.14,6.14,0,0,0-1.31,8.44l12.5,17.65L88.76,61.54a6.15,6.15,0,0,0-1.31-8.44A5.73,5.73,0,0,0,83.11,52a5.8,5.8,0,0,0-3.85,2.42L77,57.67a.86.86,0,0,1-.71.37h0a.89.89,0,0,1-.71-.37l-2.29-3.23A5.8,5.8,0,0,0,69.4,52,7,7,0,0,0,68.49,52Z"/><g class="cls-3"><path d="M75.69,102.22c0-.16,0-.27,0-.34s-.06-.37-.1-.55a5.07,5.07,0,0,1,0-2.23,3.53,3.53,0,0,0-.95-.09,42.12,42.12,0,0,1-14.77-4c-1-.37-2,.28-2.88.76-1.91.93-3.69,2.11-5.61,3-1.17.56-2.36,1.11-3.56,1.62-.68.28-1.47.47-1.84,1.17a2,2,0,0,0,2.18,2.84,70.1,70.1,0,0,0,9.39-4.66,16,16,0,0,1,1.57-.79c.72.36,1.47.68,2.22,1a52.5,52.5,0,0,0,12.79,3,3,3,0,0,0,1.62,0C75.72,102.69,75.7,102.46,75.69,102.22Z"/></g></g></g></svg>