<svg xmlns="http://www.w3.org/2000/svg" viewBox="0 0 138.7 124.05"><defs><style>.cls-1{fill:#be6bff;}.cls-2{fill:#fff;}</style></defs><g id="Camada_2" data-name="Camada 2"><g id="Layer_1" data-name="Layer 1"><rect class="cls-1" x="59.57" y="97.51" width="19.63" height="25.67"/><path d="M79.19,124.05H59.57a.87.87,0,0,1-.87-.87V97.51a.87.87,0,0,1,.87-.87H79.19a.87.87,0,0,1,.87.87v25.67A.87.87,0,0,1,79.19,124.05Zm-18.75-1.74H78.32V98.38H60.44Z"/><path d="M98.39,124.05H40.25a.87.87,0,0,1,0-1.74H98.39a.87.87,0,0,1,0,1.74Z"/><rect class="cls-2" x="0.93" y="0.87" width="136.9" height="98.82"/><path d="M137.83,100.56H.93a.87.87,0,0,1-.87-.87V.87A.87.87,0,0,1,.93,0h136.9a.87.87,0,0,1,.87.87V99.69A.87.87,0,0,1,137.83,100.56ZM1.8,98.82H137V1.74H1.8Z"/><rect class="cls-1" x="0.87" y="87.18" width="136.9" height="12.51"/><path d="M137.77,100.56H.87A.87.87,0,0,1,0,99.69V87.18a.87.87,0,0,1,.87-.87h136.9a.87.87,0,0,1,.87.87V99.69A.87.87,0,0,1,137.77,100.56Zm-136-1.74H136.9V88.05H1.74Z"/><rect class="cls-1" x="59.57" y="100.62" width="19.63" height="4.06"/><path d="M86.14,21.34H66.63a.87.87,0,0,1,0-1.74H86.14a.87.87,0,0,1,0,1.74Z"/><path d="M114,21.34H94.52a.87.87,0,0,1,0-1.74H114a.87.87,0,1,1,0,1.74Z"/><path d="M49.12,58.84H14.68a.87.87,0,1,1,0-1.74H49.12a.87.87,0,0,1,0,1.74Z"/><path d="M113.27,58.84H78.83a.87.87,0,0,1,0-1.74h34.44a.87.87,0,1,1,0,1.74Z"/><path d="M113.27,49.07H78.83a.87.87,0,1,1,0-1.74h34.44a.87.87,0,0,1,0,1.74Z"/><path d="M113.27,39H78.83a.87.87,0,1,1,0-1.74h34.44a.87.87,0,0,1,0,1.74Z"/><path d="M49.12,71.94H14.68a.87.87,0,1,1,0-1.74H49.12a.87.87,0,1,1,0,1.74Z"/><path d="M113.27,71.94H78.83a.87.87,0,0,1,0-1.74h34.44a.87.87,0,0,1,0,1.74Z"/><rect class="cls-2" x="14.68" y="14.99" width="39.44" height="29.58"/><path d="M54.12,45.44H14.68a.87.87,0,0,1-.87-.87V15a.87.87,0,0,1,.87-.87H54.12A.87.87,0,0,1,55,15V44.57A.87.87,0,0,1,54.12,45.44ZM15.55,43.7h37.7V15.86H15.55Z"/></g></g></svg>