<svg xmlns="http://www.w3.org/2000/svg" xmlns:xlink="http://www.w3.org/1999/xlink" viewBox="0 0 990.19 467.77"><defs><style>.cls-1{fill:url(#Gradiente_sem_nome_273);}.cls-2{fill:url(#Gradiente_sem_nome_272);}.cls-3{fill:url(#Gradiente_sem_nome_3);}.cls-4{fill:url(#Gradiente_sem_nome_208);}.cls-5{fill:url(#Gradiente_sem_nome_208-2);}.cls-6{fill:url(#Gradiente_sem_nome_208-3);}.cls-7{fill:url(#Gradiente_sem_nome_208-4);}.cls-8{fill:url(#Gradiente_sem_nome_208-5);}.cls-9{fill:url(#Gradiente_sem_nome_208-6);}.cls-10{fill:url(#Gradiente_sem_nome_208-7);}.cls-11{fill:url(#Gradiente_sem_nome_208-8);}.cls-12{fill:url(#Gradiente_sem_nome_208-9);}.cls-13{fill:url(#Gradiente_sem_nome_208-10);}.cls-14{fill:url(#Gradiente_sem_nome_208-11);}.cls-15{fill:url(#Gradiente_sem_nome_208-12);}.cls-16{fill:url(#Gradiente_sem_nome_208-13);}.cls-17{fill:url(#Gradiente_sem_nome_208-14);}.cls-18{fill:url(#Gradiente_sem_nome_208-15);}.cls-19{fill:url(#Gradiente_sem_nome_208-16);}.cls-20{fill:url(#Gradiente_sem_nome_208-17);}.cls-21{fill:url(#Gradiente_sem_nome_208-18);}.cls-22{fill:url(#Gradiente_sem_nome_208-19);}.cls-23{fill:url(#Gradiente_sem_nome_208-20);}.cls-24{fill:url(#Gradiente_sem_nome_208-21);}.cls-25{fill:url(#Gradiente_sem_nome_208-22);}.cls-26{fill:url(#Gradiente_sem_nome_208-23);}.cls-27{fill:url(#Gradiente_sem_nome_208-24);}.cls-28{fill:url(#Gradiente_sem_nome_208-25);}.cls-29{fill:url(#Gradiente_sem_nome_208-26);}.cls-30{fill:url(#Gradiente_sem_nome_208-27);}.cls-31{fill:url(#Gradiente_sem_nome_208-28);}.cls-32{fill:url(#Gradiente_sem_nome_208-29);}.cls-33{fill:url(#Gradiente_sem_nome_208-30);}.cls-34{fill:url(#Gradiente_sem_nome_208-31);}.cls-35{fill:url(#Gradiente_sem_nome_208-32);}.cls-36{fill:url(#Gradiente_sem_nome_208-33);}.cls-37{fill:url(#Gradiente_sem_nome_208-34);}.cls-38{fill:url(#Gradiente_sem_nome_208-35);}.cls-39{fill:url(#Gradiente_sem_nome_208-36);}.cls-40{fill:url(#Gradiente_sem_nome_208-37);}.cls-41{fill:url(#Gradiente_sem_nome_208-38);}.cls-42{fill:url(#Gradiente_sem_nome_208-39);}.cls-43{fill:url(#Gradiente_sem_nome_208-40);}.cls-44{fill:url(#Gradiente_sem_nome_208-41);}.cls-45{fill:url(#Gradiente_sem_nome_208-42);}.cls-46{fill:url(#Gradiente_sem_nome_208-43);}.cls-47{fill:url(#Gradiente_sem_nome_208-44);}.cls-48{fill:url(#Gradiente_sem_nome_208-45);}.cls-49{fill:url(#Gradiente_sem_nome_208-46);}.cls-50{fill:url(#Gradiente_sem_nome_208-47);}.cls-51{fill:url(#Gradiente_sem_nome_208-48);}.cls-52{fill:url(#Gradiente_sem_nome_208-49);}.cls-53{fill:url(#Gradiente_sem_nome_208-50);}.cls-54{fill:url(#Gradiente_sem_nome_208-51);}.cls-55{fill:url(#Gradiente_sem_nome_208-52);}.cls-56{fill:url(#Gradiente_sem_nome_208-53);}.cls-57{font-size:180px;font-family:BlackOpsOne-Regular, Black Ops One;}.cls-57,.cls-59,.cls-60,.cls-61{fill:#0a0c23;}.cls-58,.cls-59,.cls-60,.cls-61{isolation:isolate;}.cls-59,.cls-60,.cls-61{font-size:24px;font-family:AdventPro-Light, Advent Pro;font-weight:300;}.cls-60{letter-spacing:-0.05em;}.cls-61{letter-spacing:-0.04em;}.cls-62{fill:#606060;}</style><linearGradient id="Gradiente_sem_nome_273" x1="930.94" y1="4.47" x2="225.45" y2="411.78" gradientUnits="userSpaceOnUse"><stop offset="0" stop-color="#fff"/><stop offset="0.26" stop-color="#fffcff"/><stop offset="0.44" stop-color="#fdf3ff"/><stop offset="0.58" stop-color="#fbe4ff"/><stop offset="0.72" stop-color="#f8cfff"/><stop offset="0.84" stop-color="#f5b4ff"/><stop offset="0.95" stop-color="#f092ff"/><stop offset="1" stop-color="#ee83ff"/></linearGradient><linearGradient id="Gradiente_sem_nome_272" x1="436.47" y1="116.92" x2="28.97" y2="352.19" gradientUnits="userSpaceOnUse"><stop offset="0.11" stop-color="#0f0f2d"/><stop offset="0.76" stop-color="#251956"/><stop offset="1" stop-color="#fff"/></linearGradient><linearGradient id="Gradiente_sem_nome_3" x1="128.48" y1="442.93" x2="131.92" y2="442.93" gradientTransform="matrix(1, 0, 0, -1, 0, 470)" gradientUnits="userSpaceOnUse"><stop offset="0" stop-color="#a2a6a1"/><stop offset="1" stop-color="#f2f2f2"/></linearGradient><linearGradient id="Gradiente_sem_nome_208" x1="127.13" y1="25.2" x2="128.69" y2="25.2" gradientUnits="userSpaceOnUse"><stop offset="0" stop-color="#fff"/><stop offset="1" stop-color="#ee83ff"/></linearGradient><linearGradient id="Gradiente_sem_nome_208-2" x1="131.11" y1="22.1" x2="137.85" y2="22.1" xlink:href="#Gradiente_sem_nome_208"/><linearGradient id="Gradiente_sem_nome_208-3" x1="126.17" y1="24.79" x2="133.54" y2="24.79" xlink:href="#Gradiente_sem_nome_208"/><linearGradient id="Gradiente_sem_nome_208-4" x1="133.38" y1="23.63" x2="135.87" y2="23.63" xlink:href="#Gradiente_sem_nome_208"/><linearGradient id="Gradiente_sem_nome_208-5" x1="122.3" y1="31.59" x2="125.23" y2="31.59" xlink:href="#Gradiente_sem_nome_208"/><linearGradient id="Gradiente_sem_nome_208-6" x1="114.58" y1="39.35" x2="126.84" y2="39.35" xlink:href="#Gradiente_sem_nome_208"/><linearGradient id="Gradiente_sem_nome_208-7" x1="108.54" y1="31.53" x2="124.04" y2="31.53" xlink:href="#Gradiente_sem_nome_208"/><linearGradient id="Gradiente_sem_nome_208-8" x1="105.34" y1="53.6" x2="113.24" y2="53.6" xlink:href="#Gradiente_sem_nome_208"/><linearGradient id="Gradiente_sem_nome_208-9" x1="112.3" y1="39" x2="116.01" y2="39" xlink:href="#Gradiente_sem_nome_208"/><linearGradient id="Gradiente_sem_nome_208-10" x1="177.19" y1="35.19" x2="274.46" y2="35.19" xlink:href="#Gradiente_sem_nome_208"/><linearGradient id="Gradiente_sem_nome_208-11" x1="148.24" y1="51.39" x2="152.82" y2="51.39" xlink:href="#Gradiente_sem_nome_208"/><linearGradient id="Gradiente_sem_nome_208-12" x1="150.83" y1="12.09" x2="199.13" y2="12.09" xlink:href="#Gradiente_sem_nome_208"/><linearGradient id="Gradiente_sem_nome_208-13" x1="128.4" y1="27.34" x2="138.92" y2="27.34" xlink:href="#Gradiente_sem_nome_208"/><linearGradient id="Gradiente_sem_nome_208-14" x1="129.18" y1="49.49" x2="182.36" y2="49.49" xlink:href="#Gradiente_sem_nome_208"/><linearGradient id="Gradiente_sem_nome_208-15" x1="120.72" y1="28.95" x2="122.8" y2="28.95" xlink:href="#Gradiente_sem_nome_208"/><linearGradient id="Gradiente_sem_nome_208-16" x1="201.96" y1="36.34" x2="207.08" y2="36.34" xlink:href="#Gradiente_sem_nome_208"/><linearGradient id="Gradiente_sem_nome_208-17" x1="151.73" y1="30.23" x2="158.97" y2="30.23" xlink:href="#Gradiente_sem_nome_208"/><linearGradient id="Gradiente_sem_nome_208-18" x1="140.77" y1="18.67" x2="147.37" y2="18.67" xlink:href="#Gradiente_sem_nome_208"/><linearGradient id="Gradiente_sem_nome_208-19" x1="133.68" y1="28.15" x2="139.08" y2="28.15" xlink:href="#Gradiente_sem_nome_208"/><linearGradient id="Gradiente_sem_nome_208-20" x1="146.1" y1="19.15" x2="153.8" y2="19.15" xlink:href="#Gradiente_sem_nome_208"/><linearGradient id="Gradiente_sem_nome_208-21" x1="146.06" y1="18.17" x2="151.02" y2="18.17" xlink:href="#Gradiente_sem_nome_208"/><linearGradient id="Gradiente_sem_nome_208-22" x1="152.1" y1="14.46" x2="155.8" y2="14.46" xlink:href="#Gradiente_sem_nome_208"/><linearGradient id="Gradiente_sem_nome_208-23" x1="154.43" y1="12.99" x2="168.41" y2="12.99" xlink:href="#Gradiente_sem_nome_208"/><linearGradient id="Gradiente_sem_nome_208-24" x1="139.2" y1="25.23" x2="160.88" y2="25.23" xlink:href="#Gradiente_sem_nome_208"/><linearGradient id="Gradiente_sem_nome_208-25" x1="330.28" y1="224.43" x2="467.77" y2="224.43" xlink:href="#Gradiente_sem_nome_208"/><linearGradient id="Gradiente_sem_nome_208-26" x1="457.76" y1="181.18" x2="464.2" y2="181.18" xlink:href="#Gradiente_sem_nome_208"/><linearGradient id="Gradiente_sem_nome_208-27" x1="453.48" y1="160.82" x2="457.78" y2="160.82" xlink:href="#Gradiente_sem_nome_208"/><linearGradient id="Gradiente_sem_nome_208-28" x1="464.2" y1="200" x2="465.83" y2="200" xlink:href="#Gradiente_sem_nome_208"/><linearGradient id="Gradiente_sem_nome_208-29" x1="329.2" y1="94.45" x2="342.55" y2="94.45" xlink:href="#Gradiente_sem_nome_208"/><linearGradient id="Gradiente_sem_nome_208-30" x1="108.92" y1="34.76" x2="113.84" y2="34.76" xlink:href="#Gradiente_sem_nome_208"/><linearGradient id="Gradiente_sem_nome_208-31" x1="437.05" y1="192.21" x2="443.66" y2="192.21" xlink:href="#Gradiente_sem_nome_208"/><linearGradient id="Gradiente_sem_nome_208-32" x1="400.75" y1="161.75" x2="406.44" y2="161.75" xlink:href="#Gradiente_sem_nome_208"/><linearGradient id="Gradiente_sem_nome_208-33" x1="385.4" y1="161.54" x2="390.01" y2="161.54" xlink:href="#Gradiente_sem_nome_208"/><linearGradient id="Gradiente_sem_nome_208-34" x1="400.8" y1="151.03" x2="403.35" y2="151.03" xlink:href="#Gradiente_sem_nome_208"/><linearGradient id="Gradiente_sem_nome_208-35" x1="449.92" y1="198.4" x2="453" y2="198.4" xlink:href="#Gradiente_sem_nome_208"/><linearGradient id="Gradiente_sem_nome_208-36" x1="82.13" y1="49.14" x2="103.05" y2="49.14" xlink:href="#Gradiente_sem_nome_208"/><linearGradient id="Gradiente_sem_nome_208-37" x1="108.31" y1="32.88" x2="126.65" y2="32.88" xlink:href="#Gradiente_sem_nome_208"/><linearGradient id="Gradiente_sem_nome_208-38" x1="81.49" y1="52.31" x2="110.64" y2="52.31" xlink:href="#Gradiente_sem_nome_208"/><linearGradient id="Gradiente_sem_nome_208-39" x1="132.3" y1="74.41" x2="135.77" y2="74.41" xlink:href="#Gradiente_sem_nome_208"/><linearGradient id="Gradiente_sem_nome_208-40" x1="119.35" y1="67.29" x2="133.19" y2="67.29" xlink:href="#Gradiente_sem_nome_208"/><linearGradient id="Gradiente_sem_nome_208-41" x1="123.63" y1="73.64" x2="129.56" y2="73.64" xlink:href="#Gradiente_sem_nome_208"/><linearGradient id="Gradiente_sem_nome_208-42" x1="119.46" y1="258.6" x2="124.1" y2="258.6" xlink:href="#Gradiente_sem_nome_208"/><linearGradient id="Gradiente_sem_nome_208-43" x1="347.48" y1="94.48" x2="349.11" y2="94.48" xlink:href="#Gradiente_sem_nome_208"/><linearGradient id="Gradiente_sem_nome_208-44" x1="182.64" y1="117.87" x2="205.42" y2="117.87" xlink:href="#Gradiente_sem_nome_208"/><linearGradient id="Gradiente_sem_nome_208-45" x1="335.44" y1="91.71" x2="371.66" y2="91.71" xlink:href="#Gradiente_sem_nome_208"/><linearGradient id="Gradiente_sem_nome_208-46" x1="21.27" y1="137.66" x2="24.22" y2="137.66" xlink:href="#Gradiente_sem_nome_208"/><linearGradient id="Gradiente_sem_nome_208-47" x1="273.13" y1="49.22" x2="306.06" y2="49.22" xlink:href="#Gradiente_sem_nome_208"/><linearGradient id="Gradiente_sem_nome_208-48" x1="106.91" y1="245.72" x2="134.08" y2="245.72" xlink:href="#Gradiente_sem_nome_208"/><linearGradient id="Gradiente_sem_nome_208-49" x1="131.25" y1="259.42" x2="153.08" y2="259.42" xlink:href="#Gradiente_sem_nome_208"/><linearGradient id="Gradiente_sem_nome_208-50" x1="168.51" y1="119.07" x2="176.63" y2="119.07" xlink:href="#Gradiente_sem_nome_208"/><linearGradient id="Gradiente_sem_nome_208-51" x1="388.87" y1="382.66" x2="421.54" y2="382.66" xlink:href="#Gradiente_sem_nome_208"/><linearGradient id="Gradiente_sem_nome_208-52" x1="16.35" y1="241.17" x2="272.39" y2="241.17" xlink:href="#Gradiente_sem_nome_208"/><linearGradient id="Gradiente_sem_nome_208-53" x1="157.65" y1="264.39" x2="164.7" y2="264.39" xlink:href="#Gradiente_sem_nome_208"/></defs><g id="Camada_2" data-name="Camada 2"><g id="Camada_1-2" data-name="Camada 1"><g id="Camada_2-2" data-name="Camada 2"><g id="Camada_1-2-2" data-name="Camada 1-2"><path class="cls-1" d="M310.19,25h481c109.9,0,199,89.1,199,199h0c0,109.91-89.1,199-199,199h-481c-109.9,0-199-89.09-199-199h0C111.19,114.1,200.29,25,310.19,25Z"/><path class="cls-2" d="M467.77,233.88c0,129.17-104.72,233.89-233.89,233.89S0,363.05,0,233.88,104.71,0,233.88,0,467.77,104.71,467.77,233.88Z"/><path class="cls-3" d="M131.79,26a1,1,0,0,0-.34.07,11.78,11.78,0,0,0-1.39.66c-.11.08-1.44,1.19-1.45,1.2s-.15.14-.12.17.64.28,2.56-1.06C132.11,26.31,132,26,131.79,26Z"/><path class="cls-4" d="M128.69,24.79h-.15a12.47,12.47,0,0,0-1.17.55c-.15.08-.28.24-.23.27a1.33,1.33,0,0,0,.67-.22A5.26,5.26,0,0,0,128.69,24.79Z"/><path class="cls-5" d="M134.31,22.27a4.37,4.37,0,0,0,1.11-.36,14.1,14.1,0,0,0,1.36-.65s.93-.49,1.07-.61h-.21a56.81,56.81,0,0,0-6.53,2.89l1.73-.68A9.4,9.4,0,0,1,134.31,22.27Z"/><path class="cls-6" d="M130.69,24.33h-.06A7.15,7.15,0,0,1,132,23.7c.43-.18,1-.44,1.35-.6l.18-.12a1.31,1.31,0,0,0-.27.06,25.82,25.82,0,0,0-7.1,3.55,33.25,33.25,0,0,0,4.48-2A.46.46,0,0,1,130.69,24.33Z"/><path class="cls-7" d="M134.46,24a.69.69,0,0,0,.22-.16c.13-.11.23-.24.36-.35s.46-.39.68-.6.13-.14.13-.16,0,0-.12,0A8.89,8.89,0,0,0,133.59,24h0c.13.07.13.07-.21.53A9,9,0,0,0,134.46,24Z"/><path class="cls-8" d="M125.17,30.82a.49.49,0,0,0-.24,0,4.35,4.35,0,0,0-.63.25,10.88,10.88,0,0,0-2,1.3h0a11.11,11.11,0,0,0,2.52-1.17C125.11,31.07,125.35,30.84,125.17,30.82Z"/><path class="cls-9" d="M126.84,34.64c-.09-.06-.18-.13-.67-.06l-.28.05-2.42.49c-1,.22-4.2,1.75-4.64,2.36v.07c.26.08.54,0,.8.12a.43.43,0,0,1,.19.57A22.34,22.34,0,0,1,117,40.36a.58.58,0,0,1-.4.12c-.16-.63.59-.84.61-1.37a6.38,6.38,0,0,0-2.61,1.66.37.37,0,0,0,0,.21c.13.46.38.88.47,1.35a1.8,1.8,0,0,1,.15.55c0,.35-.22.66-.17,1a.3.3,0,0,0,.08.18c.6.63,6-2.53,7.47-4,.33-.33,1.27-2.21.65-2.19a10.66,10.66,0,0,0-1.92.51c1.26-.85,2.68-1.43,3.94-2.28C125.82,35.64,126.34,35.15,126.84,34.64Z"/><path class="cls-10" d="M111.35,34.41c2.35-1,4.33-2.71,6.63-3.84a23.2,23.2,0,0,0-2.44,1.59l7.88-4.49a1.94,1.94,0,0,0,.62-.52.61.61,0,0,0-.3.05c-1.68.76-12.82,6.74-15.2,8.7,1.18-.15,1.93-1.12,2.93-1.61A.46.46,0,0,1,111.35,34.41Z"/><path class="cls-11" d="M111.37,51h-.1a2.2,2.2,0,0,0-.53.32,37,37,0,0,1-2.9,2.55c-1.85,1.13-2.41,1.47-2.5,1.75h0a2.26,2.26,0,0,0,.73-.1c.7-.15.79-.15.92,0s.19.56.51.68a4.23,4.23,0,0,0,1.12-.12,8.9,8.9,0,0,0,4.53-1.91c.36-.43-.53-2.08-.53-2.09A2.69,2.69,0,0,0,111.37,51Z"/><path class="cls-12" d="M115.85,37.54a2,2,0,0,0-.55.08,6.5,6.5,0,0,0-3,1.68h0c.17,0,.34-.08.51,0s0,.14-.12.48-.37.77,0,.66a14.36,14.36,0,0,0,2.48-1.84C116,37.89,116.19,37.57,115.85,37.54Z"/><path class="cls-13" d="M192,6.57c-1.14,1.41-4.13,2.22-5.73,2.65-.08,0-8.2,2.37-8.55,2.85-2.24,3,3.39,4,3.46,4,14-1,14.16-.87,15.14,0,.07.06,6.57,7.29,4.46,11.21-.85,1.6-.85,1.66-.81,1.88.15.84,1.17.9,1.46,1.61.45,1.1,0,2.34.61,3.41,1.84-.44,3.32-2.36,5.51-1.37,3.75,1.66,2,4.68,2,4.71-1.53,1.82-4.33,1.74-5.72,3.79a9,9,0,0,0-.93,6c.26.85,11.18,19.34,16.41,21.11-2.63-38.47-4.56-56-7.21-64.28,2.39,7.3,4.31,21.64,7.2,64.23,13.09,2.51,13.36,2.2,14.2,1.26,1.39-1.55,3.75-13.51,3.77-13.62.34-1.76-.59-3.62.41-5.33.54-.88.6-.9,3.87-1.9,10.31-3.12,10.31-3.12,10.58-5.07s.43-3.12,2.28-4.07c4.5-2.28,9.67-2.6,14.16-4.91A44.11,44.11,0,0,0,274.11,32s.89-.64-.16-2c-1.53-2-3.86-3.12-5.34-5.15-.94-1.3-.91-3-1.56-4.35-.75-1.64-.42-2.08.5-3,1.28-1.29.4-1.82-2.23-3.36-8.55-5-8.62-5.14-9.32-6.3a2.17,2.17,0,0,0,.15-.35l.44-.17c-2.5-2.45-7.57-.51-8.79-5.15-.26-.13-.6-.31-.85-.42a4.74,4.74,0,0,1,.18-.72l.34-.09c-1.16-.15-4.4-.35-4.47-.36a28.23,28.23,0,0,0-5.43.44c-1.88.34-3.47-.89-5.27-.95C229.77,0,224.2,0,222,.07c-4.09.23-4.09.23-4.56.54h0a34.62,34.62,0,0,0-6.58.65h0a14.79,14.79,0,0,1,3.38.39h-3.12a22.16,22.16,0,0,0-3.05.11,65.78,65.78,0,0,0-18,4.56C190.51,6.58,190.51,6.58,192,6.57Z"/><path class="cls-14" d="M152.54,50.67c.53-1.42.3-2.06-.7-1.91,0,0-3,.8-3.55,2.12-.31.77.93,2.75,1.42,3.06C150.93,54.72,152.52,50.71,152.54,50.67Z"/><path class="cls-15" d="M173.73,8.53c-.66.27-1.34.51-2,.75,2.15-.5,9.06-2.4,10.17-2.71a112,112,0,0,1-12.19,3.58,3.12,3.12,0,0,0-1.54.68,4.31,4.31,0,0,1-1,2.2c-2.07-.63-7.42,2.48-7.63,2.65.47.21,1,.13,1.48.4a2.17,2.17,0,0,0-.07.24,11.93,11.93,0,0,0,3.24-1c-3.95,2.15-4.4,1.64-4.71,1.3-3,.07-3.16,1.21-3.24,1.75-1.69,1.12-3.9,1.24-5.41,2.72,0,.07.1.15.15.22a21.21,21.21,0,0,0,3.93-.57c2.3-.46,4.33-2.09,6.86-1.53-.18.44-.18.44-.71.84,1.68.34,7.06-2.27,6.57-3.6L167,16.3a20,20,0,0,1,4.76-3c4.81-1.16,6.49-3,6.53-3.37L178,9.87c4.45-1.16,6.48-1.69,7.86-2.61a3.91,3.91,0,0,0-1.13.11l10.59-3.29a35.84,35.84,0,0,1-3.73.46c2.48-.66,5-1,7.54-1.67-2.42,0-6.44.5-6.47.51S182.92,5,180.84,5.84a1,1,0,0,0,.38.32,3.39,3.39,0,0,1-1.76.1c-.71-.09-9,1.94-9.87,3C170,9.43,170.13,9.47,173.73,8.53Z"/><path class="cls-16" d="M134.86,25.26c-.19.28-.32.59-.53.84A7.86,7.86,0,0,1,133,27.28c.1-.26.24-.6.34-.85a1.11,1.11,0,0,0,.13-.4,2.57,2.57,0,0,0-1.8.95H132a.14.14,0,0,1,0,.09c-1,.85-2.34,1-3.44,1.61.17.09.34-.1.52,0-.14.29-.14.29-.13.34.19.06.19.06,3.41-1-1,.56-3.71,2.05-3.92,2.72h0s3.64-1.34,4.09-1.59a14.12,14.12,0,0,0,2.36-2,.4.4,0,0,1,0,.32v.05c.94-.89.94-.89,3.42-2.94.53-.44.57-.47.65-.61a.59.59,0,0,0-.37,0s-3.22,1-3.54,1.14A.23.23,0,0,0,134.86,25.26Z"/><path class="cls-17" d="M169.91,50.9c1.49-.12,4.78,4,4.81,4.06.79,1,1.6,2.08,2.34,1.94,2.06-.39,5.14-8.25,5.17-8.33a2.36,2.36,0,0,0,.13-.83l-15.05-3.41c.42-.33.82-.64,4.44-2.25,1.58-.7,2.37-1,2.32-1.47-.12-1.07-5.41-6.08-8-6.5-1.13-.18-2.34.16-3.44-.38s-1-2.47-2.63-2.6-4.65,1.08-7,1.95-2.37.88-2.74.86c-.15-.38-.32-.77-.46-4.19-1-.38-3.93.13-4.81.29-4.53,1.07-18,12.38-15.5,14.12s11.18-.06,12.35-.62c-.18-.72-.29-1.2,3.49-1.62,3.21-.34,3.68-1.12,4-1.64a29.06,29.06,0,0,1,2.86,2.21c1.1,1.18,1.56,2.78,2.59,4,1.3,1.56,4.29,1.39,4.32,4.24,0,.06-.65,6.45-9.56,9.12-2.66.79-5.55.64-8.08,2a2.32,2.32,0,0,0-.83,2.75c.48.44,2.06.64,6.74-.95,3.58-1.21,3.58-1.21,9.94,1.59-.52.54-.52.54-3.08,1.5,1.4,1.24,12.28,3.5,14.5,2.27-.09-.33-.09-.33-.66-.61-.28-.14-.28-.14-5.12-4.64,3.77.4,5,.89,7.11,2.34.42.29.72.49.92.43,1.22-.38,3.24-4.94,2.26-6-2.11-2.2-6-1.91-7.24-5.34C165.07,52.42,169.86,50.9,169.91,50.9Z"/><path class="cls-18" d="M120.72,29.46c.13.1,1-.3,1.66-.73a2,2,0,0,0,.42-.3h-.1A10.64,10.64,0,0,0,120.72,29.46Z"/><path class="cls-19" d="M204,37.94l2.29-.46a1.55,1.55,0,0,0,.75-.7.61.61,0,0,0-.1-.61c-.21-.34-.62-.45-.87-.76a.72.72,0,0,1-.16-.47.17.17,0,0,0,0-.1,1.8,1.8,0,0,0-1.1-.1c-1,.23-4,1.93-2.37,2.92A2.35,2.35,0,0,0,204,37.94Z"/><path class="cls-20" d="M158.92,30H159c-.24-.37-3.44-1.32-5.8-1-2.08.35-1.43,1.74-.94,2.14C153.8,32.43,158.87,30,158.92,30Z"/><path class="cls-21" d="M142.77,19.22a14.75,14.75,0,0,0-2,.87,1,1,0,0,0,.29-.07,5.88,5.88,0,0,1,2-.25c-.09.36-.59.35-.67.72.13.18,1.86-.52,2-.59.63-.33,2.64-2.08,2.64-2.44-.26-.08-.48.15-.73.14.22-.44.79-.42,1.07-.78h-.18a33.58,33.58,0,0,0-4.51,1.89c.4.11.76-.18,1.16-.15C143.94,18.74,143.73,18.86,142.77,19.22Z"/><path class="cls-22" d="M134.05,28.82c-.44.31-.58.42.09.83s2,0,3.27-1c.71-.61,2.17-2.1,1.5-2.16h-.28A31.29,31.29,0,0,0,134.05,28.82Z"/><path class="cls-23" d="M153.8,18h0a.43.43,0,0,0-.16,0h-.15c-.93.28-1.83.64-2.76.93s-2.17.53-3.24.87a8.53,8.53,0,0,0-1.39.5,30.06,30.06,0,0,0,5.08-.92,6.25,6.25,0,0,0,2.36-1.18A1.64,1.64,0,0,0,153.8,18Z"/><path class="cls-24" d="M146.06,19.64h0a42.35,42.35,0,0,0,4.46-1.81c.41-.19.49-.27.5-.44s-.3-.11-.31-.3.06-.19,0-.28h0a.22.22,0,0,0-.14-.08c-.16-.06-.23,0-.43,0a3.84,3.84,0,0,0-.49.27c-.7.5-1.16,1.29-2,1.61C146.61,19,146.26,19.14,146.06,19.64Z"/><path class="cls-25" d="M153.49,14.83c2.26-1.13,2.28-1.15,2.31-1.22h-.24s-2.28.74-2.94,1-.5.64-.5.64C152.28,15.42,152.81,15.17,153.49,14.83Z"/><path class="cls-26" d="M158.37,13.78c1-.29,1.28-.37,1.6-.24a.2.2,0,0,1,0,.11,6.68,6.68,0,0,1-1.56.59A22.16,22.16,0,0,0,155,15.48c-.59.36-.64,1.06-.39,1.17a16,16,0,0,0,1.74-.45c.67-.2,1.38,0,2.05-.28,1.61-.58,3-1.63,4.56-2.33,1-.43,2-.56,3-1a.6.6,0,0,0,.21-.14s0,0-.76-.21v-.07c.16-.1.33-.17.49-.25,1.34-.63,1.35-.68,1.37-.82a.67.67,0,0,1-.43-.1c.21-.29.71-.38.61-.86.29-.34.74-.46,1-.82h-.29a72.52,72.52,0,0,0-8.08,3,2.73,2.73,0,0,0,.9-.14,6.68,6.68,0,0,1-2.17.76,5.3,5.3,0,0,0-2.7,1.43A11.43,11.43,0,0,0,158.37,13.78Z"/><path class="cls-27" d="M139.72,28.9c.14,0,16.54-1.69,20.88-6,1.18-1.17-1.73-1.34-1.76-1.34-1.51,0-8.87,2.5-10.4,3.12-1.36.55-2.43-.72-2.14-1.05a1.89,1.89,0,0,1,.85-.36c2.66-.75,1.34-1.59,1.06-1.61a12.34,12.34,0,0,0-2,.46c-.78.09-1.53-.2-2.3-.11a12.68,12.68,0,0,0-1.5.25,5,5,0,0,0-1.68,1.84,2.44,2.44,0,0,0,1-.23,4.85,4.85,0,0,1,2-.47c.4.27-.9,1.93-1,2-.8.75-1.92,1-2.66,1.87C138.68,28.92,139.26,28.91,139.72,28.9Z"/><path class="cls-28" d="M467.77,231.39c-.37-6.53-.69-15.24-1.35-21.74-.29-2-.56-3.75-.81-5.42-1.56-5.17-1.7-6-4.76-24.26a1,1,0,0,1,.12.23c-7.49-24.86-7.49-24.86-7.61-26.07l.1.11A147.33,147.33,0,0,0,446,136.06l-8-15.68a31.72,31.72,0,0,0-8.54-7.91,29.31,29.31,0,0,1,8.54,7.91c-3.08-5-7-11.86-10.32-16.77-14.07-19.2-14.34-19.57-23.06-29l-9.32-9.42h0c-.35-.33-.7-.64-1.06-1,.4.54.55.75,4.43,4.76a21.21,21.21,0,0,1-2-1.41c1.09,2,3.05,3.1,4.58,4.64-.1.08-.25.17-.35.24-6.5-5.3-12-11.67-18.6-16.89,3.29,2,5.87,5.06,9.44,6.7-.84-1.52-10.81-10.15-17.38-14.12-4.72-2.85-5.23-3.33-5.73-3.78a9.4,9.4,0,0,1,.88.34,14.64,14.64,0,0,0-2.12-1.44l-.34.27a21.46,21.46,0,0,1-4.37-2.6c.28.11.65.24.93.32-.53-1.26-6.29-3.9-6.72-4,.26.66.26.66,1.22,1.78-2-.7-3-2.81-5-3.52.37.91,1.36,1.34,1.75,2.24-.73,1.58-.73,1.58-.61,2.54.19,1.45,4.83,9.62,4.87,9.69,3.46,5.31,3.33,7.17,3.3,7.36-.67,4.94-.67,4.94-3.39,6.89-1,.71-1,1.06-.44,2.36.07.18,7.33,17.16,14,14.06,2.16-1,1.09-4.56.56-6.27.56.4,12.56,12.33,14.8,16.09,1.06,1.79,2.07,3.48,3.91,3.49.37-.67.56-5.38-.6-7.55-2.68-5-2.06-5.52-.71-6.76,0-1.19-.1-1.64-3.58-3.94-2.41-1.59-2.41-1.59-5.68-6.87-1.25-2,.82-4.55-1-6.47-4.82-5-4.82-5-5-5.29a2.89,2.89,0,0,1-.27-.62l.24-.37c1.79.6,7.76,4.55,8.2,5.78H383c4.64,10.35,4.64,10.35,9,14.44,3.83,3.56,9.65,3,13.5,6.55a8.69,8.69,0,0,1-1.84-.69l-.37.23c.23.46.55.87.82,1.3a48.64,48.64,0,0,0-6.69-1.92c2.54,3.5,6.17,6.11,8.15,10.06-2.5-.1-2.68-3.74-5.37-3.53l-.27.42s3,5.59,3.36,6,2.45,3.14,2.31,4.31c-1.54-.14-1.54-.14-1.83-.06-.22.47-.29,1-.49,1.47l.26.35h-.05c-7.07-.49-7.07-.49-7.11.19l-1,.6a17.81,17.81,0,0,0-5.27-1.77l3.41.59A7.12,7.12,0,0,0,388.75,99c-.93,0-1.15.06-3.78-3-1.93-2.21-4.21-5.43-4.09-8.2.05-1.14-1.68-6-3-6.1-.16,0-3.82,0-3.19,1.77A82.92,82.92,0,0,0,383,96.34c1.35,1.56,1.42,1.77,1.45,1.87-.17.19-.2.23-1.21.42l-2.36.39-.7,1c-3.74-.11-3.74-.11-4.76.89a37.43,37.43,0,0,0,1.8,6.41l-.6,1.07c-3.13-.08-3.13-.08-4.89.58a28.06,28.06,0,0,0,1.36,3.47,11.34,11.34,0,0,1-2.64,1.29,7,7,0,0,1-.55,2.51c-3.6-.18-4.18-.61-5.75-1.76a25.47,25.47,0,0,0,1.43,2.22l-.37,1.18a16.49,16.49,0,0,1-2.48.85c-1.74-1.12-1.74-1.12-4.56-1.19l-.5,1.1,2.35,2.07-1,.69c16.89,4.69,14.24,21.65,14.14,21.81-7.86-.56-15.44-2.92-23.27-3.71a14.11,14.11,0,0,0,1.52,2.09c0,.21.86,21.17,3.56,22-.73,6.47-.73,6.47-.87,7.06,5.47-.42,6.61-.51,8.95,0a37.8,37.8,0,0,0,.95,3.77l12.81-4.25c3.54-.44,4.42-4.92,2.51-7.93,2-8.42,2.14-8.46,7.42-10.54.07-6.79.07-6.79.64-7.26,2.44-2,4.35,1.21,6.63,1.22,2.08-3.69,3.81-6.09,7.06-3.28.17.14,18,20.66,19.8,26.41,1.32,4.34.71,4.43-6.83,5.47,1.47,2.5,6,6.46,6.08,6.48.64-2-.63-4-.25-6.05l1.12.15c.95-1.41,1.33-3.09,2.21-4.53-1.13-3.91-1.13-3.91-1.1-5.33l1.14-.29c.46.62,1.07,1.45,1.54,2.07-.38-1.84-.38-1.84-6.43-9.11.09-.34.2-.81.28-1.16-2.84-1.27-5.09-2.26-12.67-17.75a3.94,3.94,0,0,1,1.74-1.44l17.17,20.18c.07.1.07.1,5.18,14.81l5.44,12.47a19.54,19.54,0,0,0,.16-2.42c0-3-1.14-5.71-1.71-8.56-1.86-9.26-1.86-9.26-.95-9.95,1.65.36,5.13,2.43,5.86,5.12a15.6,15.6,0,0,0,1-2.2l1.22-.07c1.13-8.43-4.89-15.73-3.85-24.14a3.33,3.33,0,0,1,2.18.11l-.49,1a9,9,0,0,0,2.74,2.31c.36,1.48.36,1.48,0,3.78,1.1,1.25,1.61,2.86,2.57,4.19,4.06-2.35-2-6.5-.8-9.93,1.81-.39,2.12.21,2.64,1.61-.18.32-.41.76-.59,1.09.63,1,.63,1,1.56,4.64l-.67,1c2.94,7.22,9.56,12.85,9.29,21.46l-1,.56c-3.51-2.35-3.33-10.12-9-8.63a3.78,3.78,0,0,1-.86,2.08c-.67-.23-1.59-.49-2.28-.65a4.34,4.34,0,0,0,1.09,1.92c-1.3,1.11-3.06.43-4.47,1.14a15.07,15.07,0,0,0-.15,2.6l1.08.32c.56,4.31,1.62,12.33,6.94,16.81l.82-.83V188c1.73,1.44,2.3,3.87,4.31,5.09a10.93,10.93,0,0,0,.53-2.33,6,6,0,0,0,1.92,1.29c.88,16.34,1,18.85-.77,23.26-2.35-.2-2.73-.7-3.49-3a3.24,3.24,0,0,0-2,.84c-7.81-.58-7.1-11.92-15.25-12.06-1.51,2.71-.32,5.85-1.36,8.63l-1.11.45c-1.69-1.24-19.6-17.52-20.88-19.65-.4-.66.14-1.86.55-2.52,1-1.55,1-1.55.23-11.19a35,35,0,0,0-3.52-2.13c-1.57,1.2-1.57,1.2-8.13-.3a10.65,10.65,0,0,0-1.6,2c-8.51-3.31-15.39,6-23.84,3.08-.93-.08-1.09-.09-1.26-.09-2.4.48-3.21.65-5.81-2.47-.47-.32-.48-.32-.5-.32a9.93,9.93,0,0,0-1,1c-1.59,1.94-.39,4.7-1.94,6.66-1.94,2.43-5.57,2.39-7.36,5-.54.79-.29,2.19-.33,3.14-.54,10.27-.54,10.27-3.31,11.61-2.48,1.2-6.76,4.51-7.28,5.36-1.54,2.48-12.88,22.15-12.88,22.16-.47,5.26,3,9.69,3.1,14.82.08,4.32-6.08,6.37-4.13,11.36,2.91,7.48,7,14.42,10.41,21.65,1.45,3,12.35,13.44,14.42,13.25,10.26-1,20.17-4.83,30.67-3.7a2.27,2.27,0,0,1,1,.54c1.89,1.59.54,4.45,2.39,6.05s4.18.8,6.22,1.44c1.35,4.08,1.35,4.08-.33,8,17.66,3.26,28.8,6.23,36.85,10.15-7.93-3.85-19.37-6.92-36.85-10.15-4.66,10.94-4.66,10.94-3.94,14.06,1.12,4.93,2.66,11.69-3.65,26.51-2.9,6.83-8.46,11.84-12.29,18-3.56,5.76-4,12.75-7.27,18.62-12.82,22.82-13.19,23.21-15.25,25.32a14.69,14.69,0,0,0-3.62,5.53c6.57,2,14.3-3.23,16.84-4.95l10.18-7.17,12.87-10.27c2.91-3,4.64-7,7.74-9.86,3.56-3.29,8.31-4.87,11.82-8.23,8.38-8,16.18-23.95,17-25.94,3.25-7.93,14.35-20.07,17.65-23.56,5.17-5.74,12.12-20.81,13.85-26.72-1.32-.43-1.32-.43-3.63.06-.52-.72-.52-.72.56-10.15.4-3.5-.39-6.94-.45-10.41-.18-9,1.58-18,.77-27.05l-2.39-28.47c.57.89.57.89,1.17,5a4.62,4.62,0,0,0,1.29-2.28c5.83,21.49-.35,43,.34,64.54,2.35-1.1,2.35-1.1,3.4-.87,6.23-13.44,6.23-13.44,6.53-15.17a9.27,9.27,0,0,1-.19,1.27c.14-.7.31-1.65.42-2.36l.12-.79.69-5h0c.28-2.27.63-5.11,1.16-12.84v1.16C467.36,246.16,467.81,237.8,467.77,231.39Zm-1.47,24.9c-.45-1-.45-1-.12-9.06-.22,2.57-.22,2.57-.37,3.7-.61-17.52-.35-19.12,0-21.34,1,1.55,1.44,14.5,1.28,21.95A22.45,22.45,0,0,1,466.3,256.29Z"/><path class="cls-29" d="M461.23,179.76c.08.29.17.68.24,1l1.17,5.21-.07-.25c.41,3.1,1,6.17,1.63,9.23a151.66,151.66,0,0,0-5.09-23.37l-1.35-4.17c2.75,9.37,2.84,9.75,4,14.69C461.59,181.31,461.41,180.54,461.23,179.76Z"/><path class="cls-30" d="M457.05,165c.11.3.22.59.35.88a25,25,0,0,1-1-3.37c.13.37.26.74.38,1.11L454,155.37v.1a6.06,6.06,0,0,0-.52-1.23c1.09,3.25,2.43,7.36,4.3,13.15C457.55,166.64,457.31,165.84,457.05,165Z"/><path class="cls-31" d="M465.83,205c-.35-3.38-1-6.71-1.63-10,.4,2.58.86,5.62,1.41,9.3A4.93,4.93,0,0,1,465.83,205Z"/><path class="cls-32" d="M332.51,95.09a.7.7,0,0,1-.08.2,25.08,25.08,0,0,0-1.52,5c-.22,1.31-.14,1.94.3,2.48.75.9,4.23.52,6.76-1.11.65-.41,1.23-.88,1.91-1.23s1.86-.1,2.48-1c.35-.48.2-1.61-.42-3.34a8.1,8.1,0,0,0-1.09-2,1.86,1.86,0,0,1-.26-2.34,3.15,3.15,0,0,0,.26-2.07,3.44,3.44,0,0,0-1.47-1.88,8,8,0,0,0-.95-.53c-.81-.38-1.69-.57-2.49-.94a2.34,2.34,0,0,1-.89-.6c-.08-.07-.09-.08-.16-.08-.23.06-5.49,1.37-2.18,3.22a1.6,1.6,0,0,0,.8.22,2.92,2.92,0,0,1-.48.29,9.37,9.37,0,0,0-3.2,2.1,2.15,2.15,0,0,0-.59,1.94,2,2,0,0,0,1.17,1.25A10,10,0,0,0,332.51,95.09Z"/><path class="cls-33" d="M113.84,33.26h0a57.14,57.14,0,0,0-4.92,3C109.15,36.22,109.37,36.22,113.84,33.26Z"/><path class="cls-34" d="M443.55,194.22l.11-.05v-.08l-2-2.59a1.87,1.87,0,0,0-.87-.56,15.28,15.28,0,0,1-2-.37c-1.13-.43-1.13-.43-1.23-.43-.51,0-.66.46-.35,1C437.89,192.29,442.36,194.63,443.55,194.22Z"/><path class="cls-35" d="M401.16,162.82c.41.44,1.29.22,1.45,1s-.13,1.46.07,2.17a1,1,0,0,0,.76.74c.48.12,2.92-.66,3-2.62a6,6,0,0,0-.05-.73c-.12-.82-.43-1.59-.55-2.4s-.07-1.77-.19-2.63c-.2-1.38-.7-1.55-1.19-1.6a4.81,4.81,0,0,0-3.36,2C400.67,159.51,400.57,162.18,401.16,162.82Z"/><path class="cls-36" d="M389,162.43s1-1.11,1-1.17c.09-.39-.6-.72-1.82-.86s-3.42.15-2.6,1.1a5.34,5.34,0,0,0,2.89,1.22A.71.71,0,0,0,389,162.43Z"/><path class="cls-37" d="M401.14,151.39a.73.73,0,0,0-.32.78,1.79,1.79,0,0,0,.35.67s1.9,2.24,2,2.3c.43-.21,0-3.57-.34-5.31,0,0-.6-2.67-1-2.91h-.05a.54.54,0,0,0-.11.27v.17a14.92,14.92,0,0,0,.15,2.5A1.78,1.78,0,0,1,401.14,151.39Z"/><path class="cls-38" d="M451.38,200.22s1.11.21,1.22.1a16.56,16.56,0,0,0,.4-2.71v-.16c0-.27-.06-.29-.13-.31-.32,0-.6.22-.93.22a1.49,1.49,0,0,1-.68-.23c-.29-.18-.48-.49-.8-.63a.29.29,0,0,0-.41.09h0c-.31.39,0,2.34.77,3.22A1.27,1.27,0,0,0,451.38,200.22Z"/><path class="cls-39" d="M90.23,50.87l.08.08a.56.56,0,0,0,.28-.1c1.34-.92,2.49-2.07,3.83-3,2.41-1.68,5-3.08,7.38-4.81.55-.41.55-.41,1.25-1.72l-.06-.14a8.55,8.55,0,0,0-2.18,1.14c.61-.53.61-.53.7-1h-.09l-.29.08c-3,1.25-3,1.25-16,12a9.3,9.3,0,0,0-3,3.64l.12.05C85.36,55.62,87.55,52.93,90.23,50.87Z"/><path class="cls-40" d="M108.56,38.46A8.44,8.44,0,0,0,111,37.34a66.13,66.13,0,0,1,6.11-3.16A36,36,0,0,0,121,32.67c1-.51,4.74-3.12,4.77-3.14.72-.51.77-.59.85-.73a2.36,2.36,0,0,0-1.13.3c-1.15.65-2.14,1.55-3.28,2.2,1.42-1.4,3.07-2.52,4.44-4h-.15s-4.72,2.43-4.87,3.08c-.1.47-.73,1.67-4.31,2.51l-.07-.08a2.61,2.61,0,0,1,.27-.31.26.26,0,0,0,.09-.09c.49-.53,2.15-.85,1.46-1.61-.09,0-9.66,4.64-9.74,6L114,34.29c-.46.76-1.32,1-2,1.53.12,0,.15,0,1.27-.6a12.27,12.27,0,0,1,2-.88,61.48,61.48,0,0,1-6.38,3.35C108.2,38,108.19,38.42,108.56,38.46Z"/><path class="cls-41" d="M81.94,62.17c.7.17,1.23-.44,1.89-.41l.1.12c-.3.82-1.09,1.3-1.5,2,.8,0,7.23-2.85,10.87-5.79a9.19,9.19,0,0,1,2.31-1.58l.14.09c-.31.57-.31.57-.34.7a12.69,12.69,0,0,0,2.76.82c2.3-.77,2.3-.77,4.53-3.27l.11-.13c-.24,0-.24,0-2.36,1.1a5.47,5.47,0,0,1,4-2.38c.55,0,.66,0,.86-.15,0,0,1.18-1.07,1-2-1.21-.69-1.71-2-1.07-2.81s5.52-6.77,5.4-7.26a4.34,4.34,0,0,0-.72-.24l-.1-.24h-.06c-2.28,1.94-3.85,4.65-6.53,6.17-.26-1.1.88-1.45,1.21-2.24l-.21-.15a21.18,21.18,0,0,1-3,1.44c.31-.5.85-.81,1.12-1.36l-.11-.11c-1.5.45-2.61,1.62-4,2.16.89-1.23,2.35-1.77,3.36-2.86-.9.09-12.66,7.69-12.38,9.11a4,4,0,0,1,.46.24c-.23.38-.24.4-1.63,1.24-2.34,1.41-2.45,1.69-2.44,2a.7.7,0,0,0,.43,0c1.3-.25,2.37-1.12,3.67-1.41.91-.2,1.83.2,2.76,0a15,15,0,0,1-4.77,2.21C81.44,59.18,80.84,61.9,81.94,62.17Z"/><path class="cls-42" d="M135.73,73.32c.2-.52-.33-.5-.74-.44a5.57,5.57,0,0,0-2.24.88,1.88,1.88,0,0,0-.21,2.13C133.21,76.45,135.46,74,135.73,73.32Z"/><path class="cls-43" d="M132.73,69a.83.83,0,0,0,.41-.35,1.33,1.33,0,0,0-.33-1.29,11.85,11.85,0,0,1-1.27-1,19,19,0,0,0-1.72-2.19,3.51,3.51,0,0,0-.4-.27c-.74-.45-1.65-.37-2.4-.83-.47-.29-.48-.94-1-1.23a.41.41,0,0,0-.22,0,18.46,18.46,0,0,0-3,3.68c-.3.41-.67,1-.94,1.42l-2.51,4c1.49.12,1.49.12,1.61.87.14,1,.14,1,.28.93a5.88,5.88,0,0,0,1.42-1c1.16-1,3.13-2.64,5.42-2.89C129.63,68.71,131.16,69.56,132.73,69Z"/><path class="cls-44" d="M128.62,71.78s-3.33.71-4.4,1.55c-.64.5-.74,1.89-.38,2.15.69.5,4.83-2,5.58-3.11C129.66,72,129.72,71.6,128.62,71.78Z"/><path class="cls-45" d="M120.14,257.09c-1.25.51-.53,2.48.24,2.75.52.19,3.78.81,3.72-.55C124.05,258.48,121.79,256.73,120.14,257.09Z"/><path class="cls-46" d="M347.66,94.22c-.23,0-.19.15-.13.39l1.58.12A4.19,4.19,0,0,0,347.66,94.22Z"/><path class="cls-47" d="M194.83,110.91c1.5-2,2.17-3.27,2-3.89a.66.66,0,0,0-.28,0c-.82.27-3,2.14-4.7,4.22-2,2.52-3.45,5.48-5.45,8-1.08,1.35-2.57,2.31-3.58,3.73-.38.54-.07.7.09.78s.27.14,6.35.63a46.27,46.27,0,0,1,8.75,1.33,7,7,0,0,0,1,.25c1,.06,2-.92,3,.08a3.3,3.3,0,0,1,.56,2c0,.66.35.72.53.7,1-.12,2.18-2,2.31-3.58.19-2.56-1.76-6.53-3.71-8.63-1-1.09-1-1.09-4.58-.31-1.09.24-1.33,0-1.58-.9-.47-1.72-.89-2-1.55-2.36-.35-.18-.35-.3-.18-.64A10.12,10.12,0,0,1,194.83,110.91Z"/><path class="cls-48" d="M337,79.22c.19,1.24-.76,2.4-.27,3.66.38.15,1.19.05,2.88-1.22.62-.47,1.15-.88,1.57-.64,1.73,1-.28,2.83.31,4.18,1.21,2.76,2.62,3.13,4.42,3.61,2.8.73,3.16.83,3.68,1.18.09.45-.17.91.08,1.35.75,1.34,2.08,2.25,2.75,3.66.36,1.46-1.42.61-2.72,0-.55-.26-.55-.26-2.13-.39.64,1.84,2.7,2.72,3.11,4.7.23,1.07-.77,1.63-2.2,2.32-.37.18-1,.46-.74.89.11.22.74,1,4.15.86,1.45,0,4.46-.13,4.54.85s-.61.89-1.65.87a2,2,0,0,0-1.7.62c-.73.67-.85,1.71-1.49,2.43-.79.9-1.88,1.44-2.69,2.31v.28c.45.11.45.11,7-.71,3.29-.41,6.62-.15,9.92-.63h.12l5.65-1.91a.62.62,0,0,0,.07-.19c-1.18-1.17-2.68-.14-4-.59-.61-1.71,1-3.27.33-5-1.16-3-2.36-3-3.32-2.93-2.2.11-3.69-3-3.69-3a.61.61,0,0,1,.07-.14,14.58,14.58,0,0,1,1.85.34c.77.28,1.84.65,1.76.25v-.06a3.89,3.89,0,0,0-.9-.91c-2.67-2.07-6-3.09-8.43-5.49-1.17-1.15-2-2.62-3.43-3.52a11.84,11.84,0,0,0-5.84-1.94h0c1.44-1.28,3.33-7.63-.54-7.78a13.36,13.36,0,0,0-2,.15c-2.44.32-2.89.37-2.91-.26,0-1.28,2.15-3.68.36-3.79-.05,0-4.81.09-5.52,1.79a1.18,1.18,0,0,0,.05.56C335.67,76.5,336.72,77.72,337,79.22Z"/><path class="cls-49" d="M21.43,141.59c.61-1.44.95-3,1.52-4.42.34-.86.74-1.71,1.06-2.58a1.07,1.07,0,0,1,.11-.33c0-.1.26-.82-.13-.73a.5.5,0,0,0-.19.1c-1.29,1-2.76,7.75-2.5,8.16A.86.86,0,0,0,21.43,141.59Z"/><path class="cls-50" d="M305.73,47.4a1.22,1.22,0,0,0,0-.27,4.53,4.53,0,0,0-2-1.75l-.52-.18c-1.38-.37-2.86,0-4.21-.59-1-.39-1.68-1.34-2.84-1.28-1.33.32-2.58.87-3.91,1.18s-2.64.23-3.91.66c-.81.27-.22,1.27-.86,1.64s-1.39-.35-2.07,0l-.34.21c-.26,1.14.76,2.46-.48,3.46A17.46,17.46,0,0,1,280.82,47c-1.09-2.06-5.71-3.35-7-2.32.36,1,1.63.82,2.2,1.59-.36,1.52-2.16,1.27-2.89,2.35.43.3,1.88.09,2.69-.06,1.44-.26,6,1.31,3.44,3.39,1.08,1.33,2.52.2,3.73.55s1.29.82,1.3,2c.29.25.55.36,3.09.09a18.19,18.19,0,0,1,2.76-.18c1.22.08,2.35.62,3.56.69h.5a20.6,20.6,0,0,0,4.4-.84c3-.74,7.69-4.11,7.45-5.1-.14-.64-.69-1.06-.88-1.68C305.35,47.38,305.35,47.38,305.73,47.4Z"/><path class="cls-51" d="M124.26,251.64c1.33,1.74,9.68,2.36,9.82,1.39.08-.53-10.61-12.85-10.72-12.93-1.1-.75-4.42-3-10.58-1.81a15.39,15.39,0,0,0-5.87,3.55c.44.42,3.07,0,5.24-1.21,3.09-1.77,5.15-.78,5.35-.23-.17.31-.59.75-1.58.19l-.11.08c.13,1.49,2.6,2.11,4.24,2.53,3,.76,3.23,1.41,3.85,3.31a6.25,6.25,0,0,0,1.15,2.34,3.14,3.14,0,0,1,.78,1.28C125.91,251.15,124.75,251.1,124.26,251.64Z"/><path class="cls-52" d="M137.55,261.87c.86.49.18,2.08,1.41,2.21,2.13.21,1.89-2.67,3.72-2.85a3.74,3.74,0,0,1,1,.1,78.45,78.45,0,0,0,8.93.72c.27,0,.45-.09.47-.35,0-.95-.74-1.74-.49-2.72.77-3.05-14.77-4.39-15.74-4.23a.75.75,0,0,0-.4.19c0,.24,0,.24.23.45a4.39,4.39,0,0,1,1.43,4.69c-.29.25-1.53.05-3.24-.23-3.14-.5-3.45-.41-3.62-.35a.16.16,0,0,0,.11.18C133.29,260.82,135.62,260.78,137.55,261.87Z"/><path class="cls-53" d="M168.84,117.55c-1.33.5,1.71,2,2.34,2.27,4,1.88,5.41-.15,5.42-.17C177.09,118.56,170.31,117.31,168.84,117.55Z"/><path class="cls-54" d="M419.83,367.4c-4.4,5.68-4.51,5.72-7.39,6.75-2.36.83-3.1,1.91-6.65,7.08a15.3,15.3,0,0,1-4.17,4.46c-5.33,4.18-12.54,13.37-12.75,14.13,1.94,0,1.94,0,9.28-7,6-5.73,11.25-12.14,17-18.12,0,.17,0,.17-.52,1,.23-.17.23-.17.77-.86,1.35-1.7,5.48-7.28,6.14-9.28l-.14-.06A15.31,15.31,0,0,0,419.83,367.4Z"/><path class="cls-55" d="M271.09,325.8c-.32-1.64,1.87-3.87-.2-4.93-1.47-.74-2.92.35-4.38,0-4.74-1-7.85-5.16-12.39-6.56-6.76-2.08-13.75-3.28-20.6-5-4-1.47-4.34-6.07-6.79-8.72-4.19-2.72-7.32-7.15-11.69-9.64-5.72-3.26-12.76-2.15-18.43-5.59-4.48-2.72-7.5-7.34-12.3-9.65a9.69,9.69,0,0,0-2.47-.76c-23.27-3.5-41.65-6.27-43.72,12.17-6.9-4.9-24.65,2.86-23-8.6a19.83,19.83,0,0,0-2-12.06c-5.4-2.73-10.87.1-16.31-.26,1.79-5.95,1.79-5.95.48-8.72,2.36-5.5,2.36-5.5,3.22-10.49-1-.9-10.08-8.21-12,12.25-3.12-.2-5.13,4.18-8.7,2.13-8.39-4.8-11.24-10.9-12.2-14.11-1.19-4,2.16-7.07,2.07-10.82-.05-2.4-3.28-3.56-2.43-6.3,1.09-3.56,7.64-10.23,9.18-11.41,2.74-2.11,13.37.29,13.45.33l1-.79c-.81-.89-2-1.2-2.93-1.93.07-.35.17-.82.25-1.17,2.13-1.23,19-2.7,19.1-2.66,7.23,3.86,2.82,14,9.77,18.06,8.19-8.65-5-16.32-3.52-25,1.51-9,10.52-11.1,15.55-16.86H129c-.22-.25-.51-.59-.74-.84,0-.33.1-.76.13-1.08l1.06-.31c0-.4.09-.92.13-1.3l-1-.39,1.67-16.52c.13,2.44.12,9.88.12,9.89.78-.5.78-.5,1.47-11.37.61,1.15,1.65,2.07,1.92,3.41,1.49-2.55,1-5.88,3.28-8.1.05-.06,9.78-5.35,10.5-5.29.9-8.53.9-8.53,5.68-13,.81,0,.81,0,14.69-8-.15.29-.33.68-.47,1a7.38,7.38,0,0,0,2.5.51v1.2c-8,5.7-8,5.7-8.14,7.37,5.44.09,22.19-9.64,19.2-17.18-2.31,1.54-2.4,4.38-3.78,6.46-1.79-.5-3.25-.91-4.46-1.27a4.11,4.11,0,0,0,2.13-1.56v-.07h-.46a6.33,6.33,0,0,1-3.82-.35,1.79,1.79,0,0,1-1.16-2c0-.35,0-.38-.06-.4h-.06a4.1,4.1,0,0,0-.17,3.13c-2.08-1-2.44-2-3.26-4.57-2-.72-2.09-.88-2.93-1.91,2.94-.8,5.06-1.37,5.69-4.32-1.51-1.49-1.51-1.49-22.44,11.61,14.41-15,14.41-15,29.21-19.47,3.36,2.3,18.49-5.2,20.8-9.4-.74-1.82-.74-1.82.35-4.52-.21-.31-.47-.73-.67-1-1.22-.26-2.42-.53-3.64-.77h-1.06c-.74.07-3,.29-6.93,2.88-.14-.3-.32-.7-.45-1,1.21-1.72,1.78-2,6.26-3.68-8.68.74-17.16,1.47-26.48,2.41,8.56-.9,16-1.58,26.54-2.43a1.71,1.71,0,0,0,.7-.49c.21-.53-3.29-3.54-7.68-2.38-1,.25-1,.25-1.51.08-.31-.85.38-1.79-.23-2.61-.84-1.1-2.48-.82-3.3-1.94-.35-.47-.11-.88.55-1.79,1-1.35,1-1.35-1.15-5.13-5.33-9.51-5.33-9.51-7.94-4.53-.41.77.62,1.57-.05,2.34s-2.15.07-2.88,1.06c-1.66,2.27-1.66,2.27-2.12,2.41-2.9.89-4.92-1.46-7.44-2-.44-.79.55-6,2.08-7.2-1.47-.49-3,.23-4.51-.32-.34-.12-.56-.36-1-1.14-.15-.26-.51-.88-4.16-2.09a3,3,0,0,0-1.61-.19c-3.32.9-6.89.16-10.15,1.51.58,3.09-3.21,5.87-.64,9.1-.5,1.51-2.46,2-2.57,3.79-.13,2.06,2,3.26,2,5.24,0,.09.15,8-4.44,9.11-1,.24-3.29,1-2.8,2.65a6,6,0,0,1-1.26,1.1c-1.22,4.62,1.82,10.39-3.45,14-1.65-2.52-4.57-3.24-6.85-4.87,1.23-3.63.7-5,0-6.63.36-.28,1-.78,1.3-1.06-.06-.19,0-.59-.06-.78a7.43,7.43,0,0,0-1.33-.08c-2.16-2.1-4.78-.2-7.11-.83s-3.58-3-5.86-3.85a11.61,11.61,0,0,0-1.32-.34c-2.08-.35-3.56,1.18-5.36,1.69-.63-.51-.63-.51-1.42-5.25-.28-1.65-.28-1.65-4.17-2C91.4,88,103.7,78.85,109,75c-.61-1.6-2.37-.9-3.37-1.69,10.21-1.82,10.21-1.82,16-8-3.95.69-4.77.84-8-1,3.8-1.37,8.7,1,11.58-3.42a2.43,2.43,0,0,0-1.11-.39s1.9-2.36,3.9-1.1c6.62-2.4,6.62-2.4,8.36-3.92a5.73,5.73,0,0,0,1.08-1.27c.71-1.2-.46-2.49.18-3.7s2-1,2.77-1.82a10.26,10.26,0,0,0,.81-1.86c-.06-.06-5.63-5.75-7.51,2.32-3.43,2-5.9,10-10.07,6.29.36-2.48,5.38-4.08,3-6.53-2.66,1-3.72,3.68-5.69,5.41-.47-1.33,2.24-4.87,2.27-4.9a15.16,15.16,0,0,0-2.52-.15c4.11-6.63,4.11-6.63,4.12-7.43l-.62-.45c2.35-3.63,2.35-3.63,13.31-10.1a4.66,4.66,0,0,0-2,.14c-8.77,2-20.64,18.52-20.73,18.68l.3.61c.93,0,1.85-.21,2.79-.26A2.49,2.49,0,0,0,118,51a9.49,9.49,0,0,0-3.15,2v.47h0l.56.13c-1.87,3.21-6,4.3-7.48,7.85C106.5,60,106.5,60,109.17,57.12c-1.53-.4-1.53-.4-6.53,3.54-.28.22-1.94,1.28-8.11,1-.4-.59-.33-1.36-.75-1.93-5,1.28-6.48,4.18-9.44,10-.55-1.46.73-2.66.57-4.07-2.7.44-4.9,2.64-7.84,2.2,1.23-1.21,3.21-1.65,3.68-3.63L80.24,64c-.67.36-.77.42-2.68.21a6.14,6.14,0,0,0-.83-.94c-1.36.29-2.13,1.45-3.2,2.17a9,9,0,0,1,.76-1.17,11.93,11.93,0,0,0-1.93,1.69c.62-1.3.62-1.3,2.51-3.63-3.25,3-3.25,3-9.19,8h0c1.88-1.8,3.9-3.43,5.81-5.19a101.48,101.48,0,0,0-9.57,8.49,8.55,8.55,0,0,1,.7-1l-11,12.29c-14.19,18.47-14.46,18.83-20.73,29.24V114c.09-.14.22-.33.31-.48C27,124.13,27,124.13,26.49,127c-.27.84-.63,2-.92,2.79l.65,1.06a94.61,94.61,0,0,0-2.7,11.39,9.18,9.18,0,0,0,.58,4.86,4.14,4.14,0,0,0-1.05-.19.64.64,0,0,1-.46-.15c-.08-.08-.11-.11-.25-.62-.07-.26-.33-1.13-.55-1.18h0a10.76,10.76,0,0,0,.07,4.52c.49,1.67,1.68,1.44,1.69,1.44a1.44,1.44,0,0,0,.79-.85,3.11,3.11,0,0,0,.19-1c0-.27,0-.55-.06-.82v-.08a12.67,12.67,0,0,1,1.06,5c-.57-.32-1.35-.73-1.93-1-7.08,8.81-9.54,53-4.83,61.26.6.1.6.1,10.86,21.11-.74,0-1.7,0-2.43.07,1.24,2.6,10.28,14.28,10.36,14.38.83-1.2,1.68-2.45-2.48-8.36-1.89-2.68-4-5.72-7.65-20.4,4.54,3.31,5,5.48,5.62,8.21A18.76,18.76,0,0,0,34.83,234c1.85,3,4.11,5.61,6.08,8.48,2.55,3.72,6.9,5.8,9,9.89,1.73,3.3.9,7.71,4.45,10.21a9.14,9.14,0,0,0,1.8.82,33.17,33.17,0,0,0,3.32,1.38c3.65.94,7.4,1.52,11.07,2.41s7.74-1.25,11.42.84c8.43,4.81,8.43,4.81,11.39,5.12l1.48.18c13.25,1.85,18.73,18.25,33.23,17.73,6.46-10.76,10.44,2.15,11.85,8.2.45,1.91.45,1.91-3.18,9.88-.05.13-3.56,14.49-2.05,17.17.24.44.55,1,.83,1.45,4.76,7.06,24.29,26.37,24.45,26.5,4.76,4.12,11.23,5.06,16.25,8.67,3.83,2.75,6.7,8.15,8.08,15.22.06.32,7.55,33.88,20.57,52.21,16.52,23.25,32.5,20.68,32.65,20.63-15.35-8-15.35-8-13.9-14.49-2.14-2.28-2.14-2.28-6.17-13.39.62-.21.62-.21,3.52-.11,0-.3,0-.3-3.52-5.17,2.7-2.4,2.7-2.4,2.49-4.31l.68-.42c4.78,1.46,6.38-2.49,5.14-4.3l-1.4-2c10.86-.3,15.48-26.58,15.52-26.85,1.56-3.35,5.66-5.34,7.34-6,3.86-1.6,3.91-6.13,6.64-8.61a3.72,3.72,0,0,1,3.25-1c1.59.21,1.71.22,1.92-1.28.44-3.29.14-6.61.3-9.91.09-1.85-1-3.75.22-5.55,1.43-2.08,1.95-2.86.95-4.23a3.29,3.29,0,0,1-.46-.94c9.1-3.32,12.33-13.17,12.34-13.26a1.15,1.15,0,0,0,0-.37C272.18,327.68,271.29,326.89,271.09,325.8ZM43.1,120.35c3.22-1,6.62-2.06,10.11-3C49.73,118.29,46.34,119.3,43.1,120.35ZM146.22,307.88c4.1-.52,8.28-1,12.67-1.52C154.84,306.83,150.66,307.33,146.22,307.88Zm92.12,57.57c-.17-1.6-.71-6.83-1.54-16.08.49,5.39,1,10.77,1.58,16.42C238.37,365.68,238.35,365.56,238.34,365.45ZM234,315.13a3.78,3.78,0,0,0,.07.89A3.82,3.82,0,0,1,234,315.13Z"/><path class="cls-56" d="M158.1,263.06c-1.25.85.36,2.46,1.89,2.71,1.08.18,4.56-.3,4.7-.66.08-.18-.18-.6-2.75-1.41C159.09,262.82,158.67,262.92,158.1,263.06Z"/><text class="cls-57" transform="translate(498.55 260.99)">T2M</text><g class="cls-58"><text class="cls-59" transform="translate(592.33 319.83)">Soluções em </text><text class="cls-60" transform="translate(715.38 319.83)">W</text><text class="cls-61" transform="translate(733.66 319.83)">e</text><text class="cls-59" transform="translate(743.14 319.83)">b Design</text></g><line class="cls-62" x1="499.19" y1="288" x2="900.19" y2="287"/></g></g></g></g></svg>